<svg xmlns="http://www.w3.org/2000/svg" viewBox="0 0 356.05 411.52"><defs><style>.cls-1{fill:#0c6817;}.cls-1,.cls-10,.cls-2,.cls-4,.cls-5,.cls-6,.cls-7,.cls-8,.cls-9{stroke:#5e2323;stroke-miterlimit:10;}.cls-2{fill:#ede396;}.cls-3{fill:#5e2323;}.cls-4{fill:#1c9b32;}.cls-5{fill:#168226;}.cls-6{fill:#47b547;}.cls-7{fill:#67ce67;}.cls-8{fill:#f36766;}.cls-9{fill:#271e0d;}.cls-10{fill:#fff;}</style></defs><title>404</title><g id="Layer_2" data-name="Layer 2"><g id="OBJECTS"><path class="cls-1" d="M64,291.65c-3-16-3.75-26.23-2-41.9s6.13-23.5-9.2-20.1S3.38,266.79,13.26,295.4s34.06,44.28,41.9,47.69S65.71,300.85,64,291.65Z"/><path class="cls-2" d="M54.47,240.9c1.62-1.62,18.39,2,18.73,4.09s-16,11.92-17.71,10.56S51.75,243.63,54.47,240.9Z"/><path class="cls-2" d="M55.29,270.32c1.27-1.9,18.44-1.57,19.17.37s-13.39,14.8-15.32,13.8S53.14,273.52,55.29,270.32Z"/><path class="cls-3" d="M25.68,314.29a39.88,39.88,0,0,1-4.29-5.43,42.25,42.25,0,0,1-3.31-6.1,38.8,38.8,0,0,1-2.18-6.6,32.89,32.89,0,0,1-.84-6.88.24.24,0,0,1,.47,0,43.08,43.08,0,0,0,1.22,6.7A42.59,42.59,0,0,0,19,302.36a47,47,0,0,0,3.14,6A59.59,59.59,0,0,0,26,314a.24.24,0,0,1-.36.31Z"/><path class="cls-3" d="M59.78,281.93a14.94,14.94,0,0,1,2-1.58A24.56,24.56,0,0,1,64,279a22.65,22.65,0,0,1,4.71-1.92.24.24,0,0,1,.17.44c-2.95,1.59-5.89,3.12-8.8,4.74a.24.24,0,0,1-.32-.09A.24.24,0,0,1,59.78,281.93Z"/><path class="cls-3" d="M55.74,254.31c.8-.46,1.61-.87,2.42-1.29s1.63-.81,2.45-1.21c1.65-.78,3.29-1.57,5-2.25a.24.24,0,0,1,.22.41A36.74,36.74,0,0,1,61,252.7c-.83.4-1.66.78-2.52,1.12s-1.71.67-2.6.92a.24.24,0,0,1-.19-.43Z"/><path class="cls-4" d="M225,397.07H127.88c-24,0-92.48-30.66-69-93.5s64.89-57.22,87.37-57.22,81.24-12.26,96.05,4.6,48.54,50.07,40.87,84.3S242.83,397.07,225,397.07Z"/><path class="cls-2" d="M197.52,396.8c16.43,0,42.59-70.09,36.79-96.42s-44.92-43-73.57-27.11-15.29,112.49-8.52,119.27S189.78,396.8,197.52,396.8Z"/><path class="cls-5" d="M20.83,352.48c-3.51.57-12.5,4.09-14.65-6.27s3.12-28.07,14.84-27S37.75,349.72,20.83,352.48Z"/><path class="cls-5" d="M35.14,347.51c18.68,0,23.5-4.6,21.71-12.52S51,313.54,37.44,313.54s-20.18,24-14.31,29.89S30.8,347.51,35.14,347.51Z"/><path class="cls-5" d="M79.34,401H25.18c-12.6,0-29-46-2-61.31s49.39,20.78,51.09,20.78S127.36,401,79.34,401Z"/><path class="cls-6" d="M47.65,369.42c.37,14.79-5.52,26.93-16.29,27.2s-19.3-11.51-19.67-26.3,7.55-27,18.33-27.25S47.28,354.63,47.65,369.42Z"/><path class="cls-3" d="M45.15,340.26A92.36,92.36,0,0,1,50,352a91.24,91.24,0,0,1,3.21,12.35,77.39,77.39,0,0,1,1.25,12.71,60.56,60.56,0,0,1-1.15,12.7.24.24,0,0,1-.46-.08,69.32,69.32,0,0,0,.74-12.6,81.76,81.76,0,0,0-1.36-12.55A97.76,97.76,0,0,0,49.2,352.3a116.92,116.92,0,0,0-4.48-11.84.24.24,0,0,1,.43-.2Z"/><path class="cls-3" d="M13.71,346.42a14.69,14.69,0,0,1,4.7-7,24.29,24.29,0,0,1,7.33-4.27,25.36,25.36,0,0,1,8.33-1.59,17.5,17.5,0,0,1,8.25,1.81.24.24,0,0,1,.1.32.24.24,0,0,1-.3.11,18.47,18.47,0,0,0-8-1.36,25.67,25.67,0,0,0-8,1.65,24.5,24.5,0,0,0-7.1,4,15.29,15.29,0,0,0-4.82,6.47h0a.24.24,0,0,1-.45-.14Z"/><path class="cls-3" d="M26.08,322c-.25,1-.48,2.06-.67,3.09s-.35,2.07-.45,3.11a44.33,44.33,0,0,0-.22,6.29.24.24,0,0,1-.47.06,20.16,20.16,0,0,1-.3-6.46,21.48,21.48,0,0,1,.59-3.19,17.93,17.93,0,0,1,1.09-3.05.24.24,0,0,1,.44.16Z"/><path class="cls-5" d="M313.2,352.63c3.5.62,12.44,4.26,14.74-6.07s-2.72-28.11-14.46-27.19S296.32,349.62,313.2,352.63Z"/><path class="cls-5" d="M299,347.46c-18.67-.26-23.43-4.93-21.53-12.82s6.18-21.37,19.72-21.18S317,337.75,311,343.54,303.3,347.52,299,347.46Z"/><path class="cls-5" d="M255,401h54.16c12.6,0,29-46,2-61.31s-49.39,20.78-51.09,20.78S206.93,401,255,401Z"/><path class="cls-6" d="M286.64,369.42c-.37,14.79,5.52,26.93,16.29,27.2s19.3-11.51,19.67-26.3-7.56-27-18.33-27.25S287,354.63,286.64,369.42Z"/><path class="cls-3" d="M289.58,340.46a116.93,116.93,0,0,0-4.48,11.84A97.76,97.76,0,0,0,282,364.56a81.76,81.76,0,0,0-1.36,12.55,69.32,69.32,0,0,0,.74,12.6.24.24,0,0,1-.46.08,60.56,60.56,0,0,1-1.15-12.7,77.39,77.39,0,0,1,1.25-12.71A91.24,91.24,0,0,1,284.26,352a92.36,92.36,0,0,1,4.89-11.77.24.24,0,0,1,.43.2Z"/><path class="cls-3" d="M289.76,335.37a32.62,32.62,0,0,1,8.82-2.12,19.25,19.25,0,0,1,9,1.41,30.84,30.84,0,0,1,7.59,5c2.29,2,4.4,4.12,6.49,6.28a.24.24,0,0,1-.33.34c-2.22-2-4.43-4.05-6.72-6a31.56,31.56,0,0,0-7.42-4.79,18.9,18.9,0,0,0-8.58-1.45,37.64,37.64,0,0,0-8.72,1.69.24.24,0,0,1-.3-.15A.24.24,0,0,1,289.76,335.37Z"/><path class="cls-3" d="M309.49,322.31l.64,7.14.72,7.13a.24.24,0,0,1-.46.08,43.8,43.8,0,0,1-1.25-7.12c-.11-1.2-.19-2.41-.21-3.61s0-2.41.09-3.62a.24.24,0,0,1,.25-.22A.24.24,0,0,1,309.49,322.31Z"/><path class="cls-7" d="M111.36,389.07c0-7.31-31.34-57.91-27.93-92.31s17.71-53.48,24.87-55.18,65.74,1.7,63,14.65-8.86,55.18-10.22,82.43,2.73,67.44-.34,70.51S111.36,393.5,111.36,389.07Z"/><path class="cls-6" d="M84,407.35c-2.39-.28-14.92-24.74,5.94-32.91S132.3,407.57,130,409.36,88.36,407.87,84,407.35Z"/><path class="cls-7" d="M114.79,409.74c-2.4-.2-15.72-24.24,4.85-33.09s43.46,31.71,41.25,33.58S119.2,410.11,114.79,409.74Z"/><path class="cls-2" d="M64.69,408.14H86.15c2.72,0-.68-21.46-5.45-22.14S60.43,403.89,64.69,408.14Z"/><path class="cls-2" d="M97.73,409.51h21.46c2.72,0-.68-21.46-5.45-22.14S93.47,405.25,97.73,409.51Z"/><path class="cls-3" d="M66,406.55c1.56-.22,3.13-.35,4.71-.42s3.16,0,4.74,0a41.1,41.1,0,0,1,9.36,1.44.24.24,0,0,1-.1.46,82.78,82.78,0,0,0-9.3-.9c-1.56-.09-3.11-.11-4.68-.12s-3.12,0-4.69,0a.24.24,0,0,1,0-.47Z"/><path class="cls-3" d="M98.73,407.91c1.63-.28,3.27-.51,4.9-.74s3.28-.42,4.93-.61a64.67,64.67,0,0,1,9.95-.35.24.24,0,0,1,0,.47c-3.29.23-6.57.5-9.85.87l-4.93.49c-1.65.15-3.3.28-5,.34a.24.24,0,0,1,0-.47Z"/><path class="cls-3" d="M115.67,377.62a30.39,30.39,0,0,1,5.74-2.47,21.12,21.12,0,0,1,6.23-.9,18.8,18.8,0,0,1,6.21,1.15,23.47,23.47,0,0,1,5.56,3,41.9,41.9,0,0,1,8.73,8.93,93.69,93.69,0,0,1,6.67,10.49.24.24,0,0,1-.41.24,119.57,119.57,0,0,0-7-10.2,42.55,42.55,0,0,0-8.62-8.65,22.77,22.77,0,0,0-5.31-2.9,18.93,18.93,0,0,0-5.91-1.16A24.86,24.86,0,0,0,115.89,378a.24.24,0,0,1-.32-.1A.24.24,0,0,1,115.67,377.62Z"/><path class="cls-3" d="M144.76,383a10.32,10.32,0,0,1,3.47.78,15.5,15.5,0,0,1,3.13,1.69,17.28,17.28,0,0,1,2.69,2.3,14,14,0,0,1,2.12,2.83.24.24,0,0,1-.39.27,24.59,24.59,0,0,0-5-4.57,17.62,17.62,0,0,0-6.08-2.82.24.24,0,0,1-.19-.28A.24.24,0,0,1,144.76,383Z"/><path class="cls-3" d="M146,306.54a45.46,45.46,0,0,1,2.8,6.53c.78,2.24,1.43,4.51,2.11,6.76s1.31,4.52,2,6.74a56.69,56.69,0,0,0,2.58,6.52.24.24,0,0,1-.42.22,40.63,40.63,0,0,1-3-6.45c-.83-2.22-1.5-4.49-2.18-6.75s-1.29-4.53-2-6.77-1.47-4.45-2.39-6.61a.24.24,0,0,1,.43-.2Z"/><path class="cls-7" d="M251.44,389.07c0-7.31,31.34-57.91,27.93-92.31s-34-51.77-41.14-53.48-41.38-1.36-38.66,11.58,9.46,36.26,10.83,63.51S199,406.1,202.05,409.17,251.44,393.5,251.44,389.07Z"/><path class="cls-6" d="M278.83,407.35c2.39-.28,14.92-24.74-5.94-32.91s-42.4,33.13-40.13,34.92S274.44,407.87,278.83,407.35Z"/><path class="cls-7" d="M248,409.74c2.4-.2,15.72-24.24-4.85-33.09s-43.46,31.71-41.25,33.58S243.59,410.11,248,409.74Z"/><path class="cls-2" d="M298.11,408.14H276.65c-2.72,0,.68-21.46,5.45-22.14S302.36,403.89,298.11,408.14Z"/><path class="cls-2" d="M265.07,409.51H243.61c-2.72,0,.68-21.46,5.45-22.14S269.32,405.25,265.07,409.51Z"/><path class="cls-3" d="M245.21,408.25c1.48-.15,3-.2,4.46-.21s3,.06,4.45.13a67.3,67.3,0,0,1,8.84,1.1.24.24,0,0,1-.06.47c-3-.17-5.89-.42-8.84-.57-1.47-.11-2.94-.17-4.42-.25l-4.42-.2a.24.24,0,0,1,0-.47Z"/><path class="cls-3" d="M278.25,406.54c1.45-.16,2.9-.23,4.35-.27s2.91,0,4.36,0c2.9.11,5.8.26,8.68.6a.24.24,0,0,1,0,.47c-2.9.1-5.8,0-8.69-.07l-8.67-.27a.24.24,0,0,1-.23-.24A.24.24,0,0,1,278.25,406.54Z"/><path class="cls-3" d="M245.79,377.69A22.35,22.35,0,0,0,234.42,375a20.63,20.63,0,0,0-10.92,3.89,30.27,30.27,0,0,0-8.05,8.56,37.89,37.89,0,0,0-4.74,10.87.24.24,0,0,1-.46-.11A35.23,35.23,0,0,1,214.71,387a30.35,30.35,0,0,1,8.22-8.92,21.18,21.18,0,0,1,11.45-4,20.43,20.43,0,0,1,6.06.76,25.21,25.21,0,0,1,5.57,2.4.24.24,0,0,1,.09.32A.24.24,0,0,1,245.79,377.69Z"/><path class="cls-3" d="M207.53,390.68a8.46,8.46,0,0,1,1.35-2.53,12.65,12.65,0,0,1,2-2.07,13.16,13.16,0,0,1,5-2.68.24.24,0,0,1,.29.17.24.24,0,0,1-.12.27,24,24,0,0,0-4.51,3,16.36,16.36,0,0,0-3.53,4h0a.24.24,0,0,1-.43-.19Z"/><path class="cls-3" d="M210.6,330.06c.64-2,1.34-3.91,2-5.86s1.41-3.88,2.07-5.83c1.38-3.88,2.61-7.81,3.72-11.78a.24.24,0,0,1,.46.1,78.61,78.61,0,0,1-3.24,12c-.7,2-1.42,3.89-2.19,5.81s-1.57,3.83-2.42,5.71a.24.24,0,0,1-.44-.17Z"/><path class="cls-6" d="M103.83,254.27S101.12,286,171.42,286s67.31-30.67,67.31-30.67Z"/><path class="cls-2" d="M2.15,107.46,22,126.33c2.52,2.4,18.24-20.43,14.44-25.25S2,99.78,2.15,107.46Z"/><path class="cls-2" d="M1.11,180.1,28.2,184c3.44.49,3-27.22-2.87-28.94S-3.5,173.95,1.11,180.1Z"/><path class="cls-2" d="M57.74,40.37l4.69,27c.6,3.42,26.82-5.55,26.63-11.69S62.16,34.09,57.74,40.37Z"/><path class="cls-2" d="M353.89,107.46l-19.83,18.87c-2.52,2.4-18.25-20.43-14.44-25.25S354.08,99.78,353.89,107.46Z"/><path class="cls-2" d="M354.94,180.1,327.84,184c-3.44.49-3-27.22,2.87-28.94S359.54,173.95,354.94,180.1Z"/><path class="cls-2" d="M290.63,42.41l-4.69,27c-.6,3.42-26.82-5.55-26.63-11.69S286.21,36.13,290.63,42.41Z"/><path class="cls-2" d="M187,.89l7.15,26.42c.91,3.36-26.65,6.32-29.08.67S180.34-2.93,187,.89Z"/><path class="cls-7" d="M88.37,236.09s-22.53-2.71-27.68-20.36,11.13-25,9.5-25.79-20.08-2.71-29-3S24,192.39,20,189.13s-7.87-9.77-5.16-15.74,8.41-9,7.33-11.4-15.2-8.69-11.4-31.21,17.1-11.13,18.46-16.56-7.6-18.73,0-29S47.65,77.86,49,74.6s-3.26-5.7,7.06-11.13,16.83-.54,19.27-1.9,1.36-8.14,13-12.48,23.88-1.9,25.51-2.18,3.26-4.89,6.79-5.7,7.6,4.07,10,1.9,9.43-19.18,40.09-23.27c29.34-3.91,37,13,41.06,13s9.5-10.86,22.53-6.79,18.46,25.78,21.44,28,6.79-2.71,10.59.54,2.71,8.14,5.16,8.69,18.73-4.07,25.24.81,1.09,9.23,2.44,10.58,13.84-2.71,19.27,4.07.27,18.73,2.44,22,13.84,3.26,19.54,13.84-3.53,16-3,18.46,11.13,11.13,8.41,21.71-16.29,12.48-16.56,14.66,2.44,14.3-3,18.64-23.61.27-28.5-.81-18.1-.09-17.55,1.81,16.92,15.92,8,32.21-32.75,14.93-32.75,14.93,1.51,15.06-17.49,21.85-36.25,9.09-69.91,9.36-67-9.52-73.83-15.15C83.08,243,88.37,236.09,88.37,236.09Z"/><path class="cls-8" d="M100,209.31c0,9.65-5.55,17.48-15.2,17.48s-17-7.83-17-17.48,7.37-17.48,17-17.48S100,199.66,100,209.31Z"/><path class="cls-2" d="M102.21,146c-1.63-11.67,1.09-40.44,5.7-48.58S116,83.83,118.76,84.91s6,15.2,10.58,26.6,10.58,32.3,8.69,35.83-8.14,15.47-21.71,12.76S102.63,149,102.21,146Z"/><path class="cls-2" d="M207.51,146c-.41-5.47,11.94-43.43,13.3-47.23s3.8-17,5.7-17.1c3.8-.27,17.1,13,17.64,28.5s.27,35.55-4.07,41S208.6,160.64,207.51,146Z"/><path class="cls-2" d="M156.22,241.79c-6.83-7.37-1.63-33.66-1.36-37.73s8.41-38.27,16.28-47.5,12.21-11.4,14.11-10,2.44,28,4.61,39.9,18.18,33.11,15.74,47.77S170.06,256.72,156.22,241.79Z"/><path class="cls-9" d="M147,252.1c-.54-1.09-7.87-16.56-12.21-14.38s2.44,6,4.34,7.87S147,252.1,147,252.1Z"/><path class="cls-9" d="M209.41,249.12s5.7-15.2,10.58-14.38-1.63,6.51-3.26,7.6S209.41,249.12,209.41,249.12Z"/><path class="cls-10" d="M143.1,195.92c0,13-7.5,23.61-20.54,23.61s-23-10.57-23-23.61,10-23.61,23-23.61S143.1,182.88,143.1,195.92Z"/><path class="cls-8" d="M252.67,209.31c0,9.65,5.54,17.48,15.19,17.48s17-7.83,17-17.48-7.37-17.48-17-17.48S252.67,199.66,252.67,209.31Z"/><circle class="cls-9" cx="121.33" cy="195.92" r="17.1"/><circle class="cls-10" cx="129.07" cy="188.18" r="9.36"/><path class="cls-10" d="M204.19,195.92c0,13,7.49,23.61,20.54,23.61s23-10.57,23-23.61-10-23.61-23-23.61S204.19,182.88,204.19,195.92Z"/><path class="cls-3" d="M99.33,195.92a25.16,25.16,0,0,1,1.51-8.91,23.85,23.85,0,0,1,4.71-7.75,22.88,22.88,0,0,1,16.21-7.42,21.4,21.4,0,0,1,9,1.59A18.79,18.79,0,0,1,138,178.9a23.23,23.23,0,0,1,4.15,8.07,30.91,30.91,0,0,1,1.17,9,.24.24,0,0,1-.47,0,30.31,30.31,0,0,0-1.39-8.74,22.55,22.55,0,0,0-4.13-7.72,18.38,18.38,0,0,0-7-5.14,20.43,20.43,0,0,0-8.56-1.46,22.06,22.06,0,0,0-15.6,7,24.1,24.1,0,0,0-6.4,16.06.24.24,0,0,1-.47,0Z"/><path class="cls-3" d="M247.48,195.92a24.1,24.1,0,0,0-6.4-16.06,22.06,22.06,0,0,0-15.6-7,20.43,20.43,0,0,0-8.56,1.46,18.38,18.38,0,0,0-7,5.14,22.55,22.55,0,0,0-4.13,7.72,30.31,30.31,0,0,0-1.39,8.74.24.24,0,0,1-.47,0,30.91,30.91,0,0,1,1.17-9,23.23,23.23,0,0,1,4.15-8.07,18.79,18.79,0,0,1,7.28-5.46,21.4,21.4,0,0,1,9-1.59,22.88,22.88,0,0,1,16.21,7.42,23.85,23.85,0,0,1,4.71,7.75,25.16,25.16,0,0,1,1.51,8.91.24.24,0,0,1-.47,0Z"/><circle class="cls-9" cx="225.96" cy="195.92" r="17.1"/><circle class="cls-10" cx="233.69" cy="188.18" r="9.36"/><path class="cls-9" d="M99.76,222.79s-1.36-13.57-6.51-11.94-4.61,9.77-2.44,10.59S99.76,222.79,99.76,222.79Z"/><path class="cls-3" d="M89,235.4c.73-1.12,1.54-2.19,2.36-3.24s1.69-2.07,2.54-3.09c1.76-2,3.53-4,5.42-5.88a.24.24,0,0,1,.36.31c-1.56,2.17-3.31,4.19-5,6.23l-2.62,3c-.88,1-1.76,2-2.66,3a.24.24,0,0,1-.37-.29Z"/><path class="cls-9" d="M242.55,222.48s1.53-13.57,7.35-11.94,5.21,9.77,2.76,10.59S242.55,222.48,242.55,222.48Z"/><path class="cls-3" d="M254.31,235.39c-1-1-2-2-3-3l-3-3c-1.93-2-3.9-4.05-5.69-6.23a.24.24,0,0,1,.34-.33c2.1,1.88,4.09,3.86,6.07,5.86,1,1,1.94,2,2.88,3.09s1.85,2.13,2.7,3.26a.24.24,0,0,1-.35.31Z"/><path class="cls-3" d="M98.73,161.8a8.32,8.32,0,0,1-.78-2.55,7.42,7.42,0,0,1,.11-2.72,6.51,6.51,0,0,1,1.16-2.48,6.32,6.32,0,0,1,2-1.75.24.24,0,0,1,.32.1.24.24,0,0,1-.05.29,8.88,8.88,0,0,0-1.6,1.86,7.33,7.33,0,0,0-.9,2.21,9,9,0,0,0-.2,2.41,15.15,15.15,0,0,0,.35,2.47.24.24,0,0,1-.18.28A.24.24,0,0,1,98.73,161.8Z"/><path class="cls-3" d="M140,142.78a7.09,7.09,0,0,1,2.49,1.34,10.76,10.76,0,0,1,3.9,7.25.24.24,0,0,1-.22.25.24.24,0,0,1-.24-.17,15.79,15.79,0,0,0-2.32-4.7,12.23,12.23,0,0,0-3.78-3.54h0a.24.24,0,0,1,.18-.43Z"/><path class="cls-3" d="M112.86,171.92a12.59,12.59,0,0,1,5.33-5.5,13.84,13.84,0,0,1,7.59-1.42,19.25,19.25,0,0,1,7.37,2.25,18.88,18.88,0,0,1,5.88,4.9.24.24,0,0,1-.36.31,20.65,20.65,0,0,0-5.92-4.43,19.18,19.18,0,0,0-7-2,13.33,13.33,0,0,0-7.11,1.21,13,13,0,0,0-5.32,4.94.24.24,0,0,1-.32.08A.24.24,0,0,1,112.86,171.92Z"/><path class="cls-3" d="M205.41,141.59a10.6,10.6,0,0,0-3.07,1.82,7.77,7.77,0,0,0-2.07,2.76,4.93,4.93,0,0,0-.29,3.3,6,6,0,0,0,2,2.83h0a.24.24,0,0,1-.27.38,5.74,5.74,0,0,1-2.53-2.95,5.41,5.41,0,0,1,.2-4,7.63,7.63,0,0,1,2.44-3.06,8.65,8.65,0,0,1,3.49-1.59.24.24,0,0,1,.13.45Z"/><path class="cls-3" d="M244.34,148.55a11.59,11.59,0,0,1,1.58,2.16,13.19,13.19,0,0,1,1.1,2.45,12.77,12.77,0,0,1,.62,5.3.24.24,0,0,1-.47,0,25.36,25.36,0,0,0-1.1-5,24,24,0,0,0-.94-2.36c-.35-.77-.76-1.53-1.18-2.28a.24.24,0,0,1,.38-.28Z"/><path class="cls-3" d="M210.85,170a10.1,10.1,0,0,1,4.78-4,12.36,12.36,0,0,1,6.27-.71,15.16,15.16,0,0,1,5.9,2.18,12.73,12.73,0,0,1,4.35,4.48.24.24,0,0,1-.09.32.24.24,0,0,1-.31-.07,13.86,13.86,0,0,0-4.4-4,15,15,0,0,0-5.58-1.93,11.94,11.94,0,0,0-5.82.55,10.52,10.52,0,0,0-4.71,3.48.24.24,0,0,1-.33,0A.24.24,0,0,1,210.85,170Z"/><path class="cls-3" d="M38.25,166.12c2.71,1.09,5.36,2.32,8,3.59s5.21,2.63,7.8,4l7.71,4.12c2.57,1.37,5.13,2.75,7.72,4.06a.24.24,0,0,1-.2.43c-2.69-1.15-5.32-2.41-7.93-3.72s-5.18-2.67-7.77-4l-7.73-4.07q-3.87-2-7.78-4a.24.24,0,0,1,.19-.43Z"/><path class="cls-3" d="M73.84,188.13a4.6,4.6,0,0,1,.79-.82,6.31,6.31,0,0,1,.93-.64,5.72,5.72,0,0,1,2.14-.74.24.24,0,0,1,.27.22.25.25,0,0,1-.1.22,17.93,17.93,0,0,1-1.81,1.17c-.31.17-.62.35-.94.51a9.91,9.91,0,0,1-1,.46.25.25,0,0,1-.32-.14A.25.25,0,0,1,73.84,188.13Z"/><path class="cls-3" d="M64.37,125.72c1.9,1.54,3.77,3.1,5.65,4.66l5.62,4.69,11.24,9.37a.24.24,0,0,1,0,.33.24.24,0,0,1-.32,0q-3-2.11-5.89-4.37c-1.93-1.5-3.82-3.06-5.71-4.61s-3.73-3.16-5.56-4.78-3.63-3.27-5.39-5a.24.24,0,0,1,.31-.35Z"/><path class="cls-3" d="M81.49,119c1,.95,1.93,1.93,2.87,2.92s1.84,2,2.75,3c1.78,2.05,3.58,4.1,5.23,6.28h0a.24.24,0,0,1-.35.31c-2-1.89-3.79-3.92-5.63-5.94-.89-1-1.8-2.05-2.67-3.1s-1.74-2.1-2.56-3.19a.24.24,0,0,1,.35-.31Z"/><path class="cls-3" d="M91,101.08c.34.39.63.8.92,1.22s.56.84.84,1.26a25.13,25.13,0,0,1,1.48,2.65.24.24,0,0,1-.38.28,12.16,12.16,0,0,1-1.94-2.4,13.41,13.41,0,0,1-.75-1.35,9.53,9.53,0,0,1-.58-1.44.24.24,0,0,1,.41-.23Z"/><path class="cls-3" d="M167.65,124.29c-.36-2.93-.57-5.87-.68-8.82s-.1-5.9-.07-8.84.15-5.89.28-8.83.3-5.88.47-8.81a.24.24,0,0,1,.47,0c0,2.95,0,5.89-.06,8.83l-.16,8.82c-.06,2.94-.07,5.87,0,8.81s.1,5.87.27,8.8a.24.24,0,0,1-.47,0Z"/><path class="cls-3" d="M183.67,112.28a19.75,19.75,0,0,1,.43-2.73,24.68,24.68,0,0,1,.75-2.66,23.63,23.63,0,0,1,2.36-5,.24.24,0,0,1,.42.21c-.62,1.71-1.27,3.39-1.84,5.1l-.85,2.57-.82,2.59a.24.24,0,0,1-.3.15A.24.24,0,0,1,183.67,112.28Z"/><path class="cls-3" d="M262.7,132.26c1.11-1.46,2.29-2.86,3.48-4.24s2.43-2.73,3.65-4.09c2.49-2.67,5-5.35,7.53-7.95a.24.24,0,0,1,.36.31c-2.24,2.9-4.71,5.6-7.15,8.31l-3.73,4c-1.25,1.33-2.5,2.65-3.78,4a.24.24,0,0,1-.36-.31Z"/><path class="cls-3" d="M275.25,143.06c.62-.52,1.27-1,1.93-1.46s1.32-.9,2-1.33a40.39,40.39,0,0,1,4.2-2.35h0a.24.24,0,0,1,.25.4,40.45,40.45,0,0,1-3.94,2.81c-.68.43-1.37.85-2.07,1.24s-1.41.78-2.15,1.12a.24.24,0,0,1-.25-.4Z"/><path class="cls-3" d="M288.51,155.3a10.42,10.42,0,0,1,1.12-1.18,14.54,14.54,0,0,1,1.25-1,13.44,13.44,0,0,1,2.81-1.61.24.24,0,0,1,.26.4,27.47,27.47,0,0,1-2.47,2c-.43.31-.85.62-1.3.91s-.89.59-1.36.85a.24.24,0,0,1-.3-.36Z"/><path class="cls-3" d="M277.88,185.49a56.89,56.89,0,0,0-3.13-4.82,54.41,54.41,0,0,0-3.58-4.48c-1.25-1.45-2.58-2.82-4-4.15a30.26,30.26,0,0,0-4.43-3.6h0A.24.24,0,0,1,263,168a22.77,22.77,0,0,1,4.8,3.37,47.7,47.7,0,0,1,4.13,4.13,45.41,45.41,0,0,1,3.55,4.64,34.14,34.14,0,0,1,2.83,5.11.24.24,0,0,1-.12.31A.24.24,0,0,1,277.88,185.49Z"/><path class="cls-3" d="M293.55,184.28a17.8,17.8,0,0,1,2.42-.12,23,23,0,0,1,2.41.15,21.5,21.5,0,0,1,4.72,1.06.24.24,0,0,1-.1.46c-1.59-.15-3.15-.36-4.73-.53l-2.36-.27c-.79-.09-1.58-.17-2.37-.29a.24.24,0,0,1,0-.47Z"/><path class="cls-3" d="M168.57,272c2-.15,4.09-.23,6.14-.3l6.13-.18c4.09-.09,8.16-.28,12.23-.54a.24.24,0,0,1,.06.47,91.36,91.36,0,0,1-12.26,1.07c-2.05,0-4.1.07-6.15.06s-4.09,0-6.14-.11a.24.24,0,0,1,0-.47Z"/><path class="cls-3" d="M148.25,236.18a18.91,18.91,0,0,1-.57-3.72,18.56,18.56,0,0,1,.16-3.78,15,15,0,0,1,2.83-7,.24.24,0,0,1,.4.26,20.6,20.6,0,0,0-2.24,6.86,26.88,26.88,0,0,0-.27,3.62c0,1.22.06,2.43.16,3.66a.24.24,0,0,1-.46.08Z"/><path class="cls-3" d="M204.16,218.25a13.66,13.66,0,0,1,2.42,2.35A15.52,15.52,0,0,1,210,230a.24.24,0,0,1-.47,0,23.89,23.89,0,0,0-2-6.13,22.45,22.45,0,0,0-1.64-2.77,26,26,0,0,0-2-2.53.24.24,0,0,1,.32-.35Z"/><path class="cls-3" d="M177.11,252.59l2.13-.17c.7-.07,1.4-.13,2.1-.21,1.4-.16,2.78-.4,4.2-.63a.24.24,0,0,1,.14.45,14.06,14.06,0,0,1-4.22,1.17,14.78,14.78,0,0,1-2.2.1,12.12,12.12,0,0,1-2.18-.24.24.24,0,0,1-.19-.28A.24.24,0,0,1,177.11,252.59Z"/><path class="cls-3" d="M104,147.24q-.19-4.14-.29-8.28t0-8.29c.08-2.77.19-5.53.46-8.29a74.67,74.67,0,0,1,1.22-8.22.24.24,0,0,1,.46.08c-.37,2.73-.63,5.47-.81,8.21s-.3,5.49-.33,8.24-.07,5.51-.09,8.26,0,5.52-.12,8.28a.24.24,0,0,1-.47,0Z"/><path class="cls-3" d="M240.55,144.85c-.1-2.11-.06-4.22,0-6.33s.22-4.21.34-6.3.28-4.19.41-6.28.22-4.19.26-6.28a.24.24,0,0,1,.47,0c.15,2.11.18,4.22.14,6.33s-.17,4.21-.29,6.31l-.46,6.29c-.16,2.09-.29,4.19-.42,6.28a.24.24,0,0,1-.47,0Z"/><path class="cls-3" d="M156.09,234.83a43.8,43.8,0,0,1-1.21-7.2,73,73,0,0,1-.22-7.3q.1-3.64.33-7.27c.14-2.42.31-4.83.42-7.24a.24.24,0,0,1,.47,0c.08,2.43,0,4.85,0,7.27s-.18,4.83-.2,7.25,0,4.82.1,7.22a65,65,0,0,0,.8,7.17.24.24,0,0,1-.46.1Z"/><path class="cls-3" d="M159.86,242.42a33.17,33.17,0,0,0,5.7,3,31.31,31.31,0,0,0,6.16,1.85,30.95,30.95,0,0,0,12.81-.15.24.24,0,0,1,.13.45,24.78,24.78,0,0,1-6.51,1.16,28.74,28.74,0,0,1-6.62-.49,29.36,29.36,0,0,1-6.32-2,25.78,25.78,0,0,1-5.63-3.46.24.24,0,0,1,.28-.38Z"/><path class="cls-3" d="M2.72,178.68c.86-.05,1.72,0,2.57,0s1.7.06,2.55.11a45.59,45.59,0,0,1,5.08.6h0a.24.24,0,0,1,0,.47,45.64,45.64,0,0,1-5.13-.08c-.85-.06-1.71-.13-2.56-.23s-1.7-.21-2.54-.37a.24.24,0,0,1,0-.47Z"/><path class="cls-3" d="M4.57,106.2l2.86,2.58c1,.85,1.91,1.72,2.88,2.55,1.91,1.72,3.88,3.36,5.81,5.06a.24.24,0,0,1-.28.38,50.71,50.71,0,0,1-6.19-4.69c-1-.87-1.92-1.74-2.83-2.66a35.49,35.49,0,0,1-2.6-2.9.24.24,0,0,1,.34-.32Z"/><path class="cls-3" d="M63.1,60.76c-.31-1.37-.56-2.76-.8-4.15s-.44-2.78-.66-4.17c-.37-2.79-.75-5.58-.93-8.39a.24.24,0,0,1,.47-.07h0c.61,2.76,1,5.53,1.45,8.3.18,1.39.38,2.78.54,4.18s.3,2.79.39,4.2h0a.24.24,0,0,1-.47.07Z"/><path class="cls-3" d="M330.67,181.06c1.66-.38,3.33-.67,5-.94s3.36-.48,5-.73c3.36-.42,6.7-.89,10-1.4a.24.24,0,0,1,.1.46,76.2,76.2,0,0,1-10,1.93l-5,.61c-1.68.18-3.36.37-5.05.53a.24.24,0,0,1-.08-.47Z"/><path class="cls-3" d="M341.82,115.36l2-1.63c.66-.55,1.32-1.1,2-1.66,1.3-1.12,2.54-2.29,3.82-3.47a.24.24,0,0,1,.36.31,20.4,20.4,0,0,1-3.52,3.92,21.85,21.85,0,0,1-2.09,1.61,16.82,16.82,0,0,1-2.28,1.33.24.24,0,0,1-.25-.4Z"/><path class="cls-3" d="M286.22,59.79a2.52,2.52,0,0,1-.08-.57c0-.17,0-.32,0-.48v-1l.11-1.9c.09-1.26.25-2.52.4-3.78s.38-2.51.64-3.75a29.07,29.07,0,0,1,1-3.69.24.24,0,0,1,.46.12c-.21,1.24-.39,2.48-.56,3.72s-.36,2.49-.51,3.74L287.12,56l-.25,1.87-.13.93-.09.84,0,.15a.21.21,0,0,1-.42,0Z"/><path class="cls-3" d="M189.82,19.58a18,18,0,0,1-.92-2.31c-.27-.78-.48-1.58-.68-2.38a27.47,27.47,0,0,1-.79-4.89.24.24,0,0,1,.46-.08c.49,1.57.89,3.15,1.29,4.73.19.79.39,1.58.56,2.38s.36,1.59.52,2.39a.24.24,0,0,1-.18.28A.24.24,0,0,1,189.82,19.58Z"/><path class="cls-3" d="M117.88,89.26c.77,2.16,1.42,4.35,2,6.56s1.14,4.43,1.68,6.65l1.5,6.68,1.43,6.69a.24.24,0,0,1-.46.12q-1-3.28-1.83-6.61c-.57-2.21-1.07-4.44-1.62-6.65L119.06,96l-1.63-6.64a.24.24,0,0,1,.45-.14Z"/><path class="cls-3" d="M227.69,85.1a53.46,53.46,0,0,1,3.69,4.8c1.14,1.67,2.19,3.39,3.19,5.15a65.72,65.72,0,0,1,4.91,11.06.24.24,0,0,1-.44.17c-1.65-3.65-3.37-7.27-5.34-10.74-1-1.75-2-3.46-3.06-5.15s-2.18-3.35-3.32-5a.24.24,0,0,1,.37-.29Z"/><path class="cls-3" d="M11.32,102.39a25.1,25.1,0,0,1,3.11-1,32.25,32.25,0,0,1,3.2-.67,30.78,30.78,0,0,1,6.52-.37.24.24,0,0,1,0,.47c-2.14.28-4.27.53-6.38.88-1.06.16-2.11.36-3.17.54l-3.17.61a.24.24,0,0,1-.13-.45Z"/><path class="cls-3" d="M9.66,166.85a8.2,8.2,0,0,1,1.06-1.56A10.06,10.06,0,0,1,12.07,164a9.77,9.77,0,0,1,3.3-1.79.24.24,0,0,1,.21.42c-1,.71-2,1.38-2.87,2.14-.46.37-.9.76-1.35,1.16s-.87.82-1.32,1.23a.24.24,0,0,1-.34,0A.24.24,0,0,1,9.66,166.85Z"/><path class="cls-3" d="M67.7,42.12c1.08.5,2.12,1.05,3.17,1.61s2.07,1.15,3.1,1.74c2,1.2,4.07,2.44,6,3.81a.24.24,0,0,1-.24.41h0c-2.15-1-4.21-2.17-6.26-3.35-1-.6-2-1.2-3-1.84s-2-1.27-3-2h0a.24.24,0,0,1,.24-.41Z"/><path class="cls-3" d="M174.68,14.61a18.52,18.52,0,0,1,1.22-2.16,23.7,23.7,0,0,1,1.45-2,22.81,22.81,0,0,1,3.49-3.53.24.24,0,0,1,.34.33c-1,1.31-2,2.55-3,3.82L176.62,13c-.51.63-1,1.28-1.54,1.9a.24.24,0,0,1-.4-.25Z"/><path class="cls-3" d="M270.8,50.31a18,18,0,0,1,1.86-1.47,23.21,23.21,0,0,1,2-1.26A22,22,0,0,1,279,45.69a.24.24,0,0,1,.19.43c-1.34.82-2.7,1.56-4,2.32l-2,1.14c-.68.38-1.36.76-2.06,1.11a.24.24,0,0,1-.27-.39Z"/><path class="cls-3" d="M337.34,101.36a15.12,15.12,0,0,1,2.47-.26,18.17,18.17,0,0,1,2.49.09,17.44,17.44,0,0,1,4.82,1.2.24.24,0,0,1-.13.45c-1.62-.24-3.2-.5-4.8-.66-.8-.09-1.6-.15-2.4-.21l-2.43-.15a.24.24,0,0,1-.22-.25A.24.24,0,0,1,337.34,101.36Z"/><path class="cls-3" d="M343.14,166.31c.63.48,1.22,1,1.8,1.52s1.15,1.07,1.7,1.62a38.41,38.41,0,0,1,3.13,3.51.24.24,0,0,1-.33.33,38.4,38.4,0,0,1-3.51-3.13c-.55-.56-1.1-1.12-1.62-1.7s-1-1.17-1.52-1.81a.24.24,0,0,1,.33-.33Z"/><path class="cls-3" d="M166,171.37a22.93,22.93,0,0,1,2.24-6.66,36.26,36.26,0,0,1,3.82-5.9,53.64,53.64,0,0,1,4.74-5.16,68,68,0,0,1,5.29-4.55.24.24,0,0,1,.31.36c-1.7,1.57-3.37,3.17-5,4.81a62,62,0,0,0-4.57,5.16,39.31,39.31,0,0,0-3.82,5.69,27.51,27.51,0,0,0-2.56,6.35.24.24,0,0,1-.46-.1Z"/><path class="cls-3" d="M28.71,93a20.13,20.13,0,0,1,1.38-3.56,23.81,23.81,0,0,1,2-3.27A20.46,20.46,0,0,1,37.64,81a.24.24,0,0,1,.28.38,32.58,32.58,0,0,0-5,5.41,29.56,29.56,0,0,0-2,3.09c-.62,1.07-1.17,2.18-1.71,3.31a.24.24,0,0,1-.44-.16Z"/><path class="cls-3" d="M52.2,71.24a3.93,3.93,0,0,1,1.31-3A5.09,5.09,0,0,1,56.45,67a.24.24,0,0,1,.26.22.25.25,0,0,1-.13.24A10.74,10.74,0,0,0,54.19,69a5.87,5.87,0,0,0-.89,1,6.92,6.92,0,0,0-.64,1.27.24.24,0,0,1-.31.14A.25.25,0,0,1,52.2,71.24Z"/><path class="cls-3" d="M79.45,60.33a5.62,5.62,0,0,1,.37-1.8,6.28,6.28,0,0,1,.9-1.63,6.54,6.54,0,0,1,2.93-2.18.24.24,0,0,1,.31.14.24.24,0,0,1-.07.27,13.94,13.94,0,0,0-2.37,2.37,10.93,10.93,0,0,0-.89,1.39,16.85,16.85,0,0,0-.71,1.54.24.24,0,0,1-.31.13A.24.24,0,0,1,79.45,60.33Z"/><path class="cls-3" d="M14.4,125.37a9,9,0,0,1,3.75-5.7,9.42,9.42,0,0,1,6.71-1.28.24.24,0,0,1,.19.27.24.24,0,0,1-.23.2,14.52,14.52,0,0,0-3.22.39,9.54,9.54,0,0,0-2.9,1.25,9.06,9.06,0,0,0-2.28,2.17,13.38,13.38,0,0,0-1.57,2.83.24.24,0,0,1-.45-.14Z"/><path class="cls-3" d="M137.41,40.81a27.72,27.72,0,0,1,2.34-2.75,33.38,33.38,0,0,1,2.63-2.47,32,32,0,0,1,6-4,.24.24,0,0,1,.25.4c-1.91,1.42-3.79,2.85-5.59,4.38-.91.76-1.78,1.55-2.66,2.34s-1.73,1.62-2.6,2.43a.24.24,0,0,1-.35-.31Z"/><path class="cls-3" d="M187.39,23.71a24.23,24.23,0,0,1,4.48,1.64A34.66,34.66,0,0,1,196,27.73,39,39,0,0,1,203.15,34a.24.24,0,0,1-.33.34,73.89,73.89,0,0,0-7.37-5.76,42.7,42.7,0,0,0-4-2.42,42,42,0,0,0-4.22-2,.24.24,0,0,1,.15-.45Z"/><path class="cls-3" d="M215.08,33.64a10.32,10.32,0,0,1,1.57-1.55,12.23,12.23,0,0,1,1.84-1.23,11.46,11.46,0,0,1,4.19-1.36.24.24,0,0,1,.11.46A35,35,0,0,0,219,31.73c-.61.33-1.21.7-1.81,1.07S216,33.58,215.4,34a.24.24,0,0,1-.32-.35Z"/><path class="cls-3" d="M260.18,56.74a3.92,3.92,0,0,1,1-.26,5.13,5.13,0,0,1,1.07,0,4.78,4.78,0,0,1,2,.63.25.25,0,0,1,.08.34.25.25,0,0,1-.21.12c-.7,0-1.35,0-2-.09-.33,0-.65-.05-1-.1a9.86,9.86,0,0,1-1-.15.25.25,0,0,1-.19-.29A.26.26,0,0,1,260.18,56.74Z"/><path class="cls-3" d="M284.07,64.57a17.44,17.44,0,0,1,2.56.06,22.09,22.09,0,0,1,2.53.38A20.88,20.88,0,0,1,294,66.63a.24.24,0,0,1-.16.45c-1.65-.36-3.26-.75-4.89-1.08l-2.45-.48L284,65a.24.24,0,0,1-.19-.28A.24.24,0,0,1,284.07,64.57Z"/><path class="cls-3" d="M304.78,78.54a11.43,11.43,0,0,1,3.28-.45,10.22,10.22,0,0,1,8.52,4.62.24.24,0,0,1-.37.3,13.42,13.42,0,0,0-5.17-3.41,12.63,12.63,0,0,0-3-.63,19.06,19.06,0,0,0-3.16,0,.24.24,0,0,1-.09-.46Z"/><path class="cls-3" d="M331.59,109.3a30.11,30.11,0,0,1,1.86,2.63c.58.9,1.12,1.83,1.63,2.77a41.25,41.25,0,0,1,2.66,5.86.24.24,0,0,1-.43.2c-1.07-1.85-2.08-3.72-3.1-5.58l-1.52-2.81c-.5-.94-1-1.87-1.49-2.82a.24.24,0,0,1,.4-.26Z"/><path class="cls-3" d="M337.41,138.64c.46,1,.87,2,1.29,3l1.21,3c.78,2,1.57,4.08,2.26,6.17a.24.24,0,0,1-.43.19,51.4,51.4,0,0,1-2.76-6c-.39-1-.78-2.06-1.11-3.11s-.66-2.1-.91-3.18a.24.24,0,0,1,.45-.15Z"/><path class="cls-3" d="M321,172a11.19,11.19,0,0,1,1.34,1.74,13.74,13.74,0,0,1,1,1.94,13,13,0,0,1,1.08,4.24.24.24,0,0,1-.46.1c-.49-1.34-1-2.66-1.53-3.94-.28-.64-.58-1.27-.88-1.91l-1-1.9A.24.24,0,0,1,321,172Z"/></g></g></svg>