<svg xmlns="http://www.w3.org/2000/svg" viewBox="0 0 665.36 434.94"><defs><style>.cls-1{opacity:0.4;}.cls-2,.cls-4{fill:#e2dcd0;}.cls-3{fill:#ceccc3;stroke:#e2dcd0;stroke-width:2px;}.cls-3,.cls-4{stroke-miterlimit:10;}.cls-4{stroke:#ceccc3;stroke-width:4px;}.cls-5{fill:#fefefe;}</style></defs><title>bg</title><g id="Layer_2" data-name="Layer 2"><g id="Layer_1-2" data-name="Layer 1"><g class="cls-1"><path class="cls-2" d="M0,434.94V0H656.25c9.1,0,9.11,0,9.11,9.07q0,208.07,0,416.14c0,9.72,0,9.72-9.76,9.72Zm75.66-91.29L74,342.48l2.71-11.3c-4.85,4.26-6.26,8.32-8.21,12-.51,1-.59,2.89-2.43,2s-1.52-2.11-.53-3.7c1.74-2.77,4.11-5.27,5-9.23-4.79.66-6.14,5.15-9.33,6.42-2-5.07,3.43-8.81,1.88-13.69-1.72-.09-2.26,1.26-2.78,2.36-2.53,5.32-4.9,10.64-11.27,3.36a2.67,2.67,0,0,0-4-.11,3.62,3.62,0,0,0-1.22,4c.93,4.11,3.15,7.55,5.66,10.77C62,361.33,78.54,371,98,375.24c11.76,2.56,23.61,4.21,34.44,10.1,2.65,1.44,3,2.15,1.92,4.49-2.22,4.88-4.69,9.69-6.4,14.75-2,5.89.57,10.87,6.22,13a23.3,23.3,0,0,0,16.47,0c2.94-1.05,5.9-3,4.1-6.7-2.5-5.16.06-7.82,4.07-10.69.11,3.47,2.29,6.17,1.26,9.29-1.15,3.45.46,4.65,3.47,6.24,4.77,2.53,9,2.53,13.86.61,4.59-1.79,7.27-3,2.35-7.69-3.22-3.06-.66-6.94.1-10.36.8-3.65,3.87-1.67,5.88-1.78,5.38-.29,10.78-.26,16.17-.22,1.47,0,3.41-1.08,4.12,1.63,1.31,5,4.21,9.91,4.09,14.8-.19,7.55,4.15,7.31,9,7.25a36.35,36.35,0,0,0,6.42-.73c2.7-.52,5.94-.67,7.13-3.62s-2.16-3.7-3.64-5.32c-2.05-2.24-1.37-4.84-.74-7.31a2.19,2.19,0,0,1,2.44-1.68c2.66.5,2.53,3.19,3.55,4.94a6.68,6.68,0,0,1,.92,3.71c-.39,4.33,2.3,5.23,5.62,5.07,4.08-.19,8.21-.6,12-2.25,3.33-1.45,5.39-3.49,1.14-6.37a6.21,6.21,0,0,1-3-3.9c-3.43-13.75-3.48-13.73,9.33-19.34a28.62,28.62,0,0,0,2.93-1.33,96.63,96.63,0,0,1,46.56-13.14,22.64,22.64,0,0,0,10.4-3.21c3.83-2.16,6.22-5.11,6.07-9.82s-2.06-8.18-6.17-9.79c-6.6-2.58-11.83-6.79-16.86-11.6-11.08-10.58-30.88-6-36.52,7.6-2.49,6-6,6.5-11.11,4.58,2.26-4.75,2.65-10.75.3-12-3.44-1.77-6.07.91-8.56,2.76-1.52,1.13-1.57,4.64-4.88,1.61-2.85-2.61-.32-3.47.74-5,2.45-3.61,2.24-14.45-.55-15-5-1-8.94,2-12.36,5.4a2.89,2.89,0,0,0-.65,1.11c-.54,1.64-.83,3.39-3.3,1.84-1.65-1-2.41-1.64-1.26-3.82,3.68-7,.64-13.34-2.48-19.55-1.32-2.64-3.59-3.09-6-1.59-5.76,3.66-12.37,6.69-12.84,14.91-.08,1.43-.14,2.58-2,2.34s-2.19-1.19-1.76-3.11c2.51-11.19-4.57-18.1-11.46-25a4.17,4.17,0,0,0-4.73-1.08c-6.43,2.37-14.58,18-13.34,24.9.23,1.32,3.25,3.62-.28,4.59-3.15.87-2.59-2.06-3-3.71-2-7.68-8.35-10.44-14.71-13.15a3.33,3.33,0,0,0-4,1.17c-3.72,4.22-5,15.78-1.9,20.79,1.14,1.83,2.35,2.83-.47,4.37-3,1.65-3-.28-3.77-2.17a13.7,13.7,0,0,0-15.46-8.65c-1,.18-1.92.07-2.63,1.26-2.34,4-1.3,13.26,2,17.06.82,1,3.24,1.28,1.91,3.31a4.78,4.78,0,0,1-2.67,1.7c-2.35.6-1.89-1.61-2.56-2.78-2.71-4.66-7.62-8.12-12.09-6.9-4,1.1-3.57,7.18-3.32,11.49a12.32,12.32,0,0,0,1,3.65c.5,1.27,2.95,2.08,0,3.81s-2.34-1.05-3.13-1.94c-1.89-2.12-4.15-4.83-6.8-4.21-3,.72-3,4.42-2.93,7.15.13,4.1-.44,6.36-5.31,4.13-2.06-.94-4.65-.66-6.91-1.28-9.18-2.49-9.15-2.53-4.37-10.63.38-.65,1.23-1.32.43-2.36C77.87,341.55,77,343.18,75.66,343.65ZM343.73,280.8c.52-.3.91-.65.39-1.27l.36-22c.13-.11.39-.25.37-.34a4.46,4.46,0,0,0-.33-.83c7-3.14,14.43,0,22-2.7-.7,4.46-1.84,7.73-1.54,11.19.17,2,.14,3.95,1.94,5.23,5.58,4,11.71,3.38,17.59,1.35,4.47-1.55,7.18-5.26,7.74-10.16a95.84,95.84,0,0,0,1-11.57c0-3,1.48-4.92,3.89-4.76,2.86.18,1.38,3.1,1.26,4.63-.5,6.28-2.95,12-5.09,17.91-1.82,5-2.35,10.49,1.65,14.35,4.19,4,9.39,5.89,15.58,2.78,10.1-5.07,11.73-7,9.89-18.28-1.51-9.27-.91-18.45-.82-27.71,0-4.68,2-7.12,5.94-9.44,15.33-9,28.59-20.11,34.47-37.76,3.78-11.37,4.7-22.94,1.51-34.69a41.28,41.28,0,0,0-2,8.71c-2,12.66-7.49,23.34-18,31-8.42,6.11-16.66,5.74-25-.4-4.93-3.61-8.62-8.4-12.59-12.94-9.58-11-21.49-15.15-35.91-12.54-7.07,1.28-13.43,4.47-20.14,6.73-13.53,4.56-19.61-1.59-23.15-12.13-3.16-9.43-4.89-19.17-6.23-29-2.35-17.25-4-34.61-6.73-51.8-1.52-9.7-5.89-18.13-16.51-21.08-11.1-3.08-21.38-1.06-28.88,7.74A274.33,274.33,0,0,1,246.7,92.14c-8.59,8.18-4.48,21.19,7,24.88,8.29,2.68,16.3.69,23.84-2.38,5-2,5.72-.78,6.08,3.85,1.75,22.47-.07,44.71-3.35,66.92-2.68,18.14-1.73,35.73,10,51.13,2.19,2.89,1.15,5.75,0,8.5-2.27,5.56-5,10.95-7.1,16.56-1.38,3.62-2.55,8,.74,10.9a20.54,20.54,0,0,0,15.78,5c6.87-1,13.1-4.47,13.26-13.17.05-2.8.3-5.6.62-8.38.16-1.41-.57-3.56,1.12-4a6.73,6.73,0,0,1,4.83,1c1.44,1,.52,2.9,0,4.2-1.56,4.2-3.57,8.23-5.09,12.44-4.47,12.32-3.43,14.79,8,20.16C330.09,293.29,340.88,288.78,343.73,280.8ZM617,392.44c-4.72-.21-9-.74-13.26-.52-12.85.65-22.39-4.86-29.54-15.18-4.92-7.1-8.64-14.87-12.72-22.44-7.41-13.74-18.14-24-32.44-30.29-19.39-8.48-39-6.83-58.7-.85-3.36,1-6.54,2.82-9.62-1.12-1.44-1.84-4.85-1.83-6.74-.92-5.51,2.64-6.55.84-6.47-4.59.15-10.56-2.32-12.37-12.68-9.82-3,.74-4.26.66-5.42-2.79-3-8.85-5.28-9.65-13.06-4.8-3.56,2.22-6.49,3-10.61,1.24-7.07-3-9.35-1.65-11.63,6-.81,2.71-1.59,4.14-4.83,4.73-9.59,1.75-10.2,2.74-8.45,12.5.51,2.82.39,4.29-2.46,5.3-4.68,1.68-4.74,5.08-2.65,8.81a49.75,49.75,0,0,0,5,7.53c2.42,2.92,4.12,5.1,1.49,9.35s-5.2,2.21-8.17,1.71c-3.74-.63-6.62-.84-4.07,4.75a18.27,18.27,0,0,1,1.73,9.26c-1,11.26,5.34,18.43,16.81,19.26,11.74.85,23.25-.38,33.8-6.16,4-2.18,5.37-.78,5.84,3.18.87,7.33.72,14.07-6.09,19.17-3.51,2.63-4.59,7.3-.5,9.91,9.62,6.13,22,5,23.77-9.24.41-3.22.56-6.62,3.31-9.33,2.64,9.43,2.6,9.41-2.63,18.65-1.65,2.92-1.18,5.46,2.16,6.84a27.36,27.36,0,0,0,18.39,1.11c1.79-.51,3.54-1.33,3.28-3.36-.9-6.86,3.68-12.81,3.06-19.59-.17-1.88.09-3.67,2.63-3.25,3.64.6,9.3-2.18,10.56,1.87,1.72,5.51,10,10.75,2.37,17.73-1.91,1.76-1.38,3.9.92,5.36,3.49,2.23,16.45,1.08,19.17-2.11,3.9-4.59,1.58-9.24-.7-13.66A22.15,22.15,0,0,1,505,394.48c4.81,6.51,6.37,13,11.07,17.44.69.66.56,2.47.4,3.71-1,8.61-.19,9.65,8.72,9.72a54.44,54.44,0,0,0,7.09-.58c11.48-1.44,14.73-8,8.58-18-3.69-6-5.73-12.43-7.37-19.15-.88-3.61,1.92-4.93,3.59-7,2.06-2.54,4.1-.62,5.62.51,13,9.74,27.72,16,43.12,20.87,6.25,2,26.05-2.67,30.43-7.9A10,10,0,0,0,617,392.44ZM15.52,69.92c2,8.82,6.34,14.09,11.24,18.84,18.94,18.35,42.19,27.15,68,28.8,8.84.57,16.39,1.5,23.34,7.89,4.11,3.78,3.87,8.31,5.58,12.46,4.92,11.94,9.93,23.91,8.3,37.35a5,5,0,0,0,2.43,5c6.94,4.47,15.73,1.47,22.89,5.77,2.13,1.28.92-3.38,3-4a2.2,2.2,0,0,1,1.58.09c3.51,2.2,6.09,3.28,4.09-2.77a2.43,2.43,0,0,1,2.09-3.22c1.66-.35,4.51,1,4.39-1.89-.09-2.19-2.66-3.55-4.75-3.76-4.91-.49-8.52-3.81-12.93-5.33-2.16-.75-3.83-2.24-3-4.91,2-6.49,4.12-13,6.5-20.44,1.86,4.5,3.77,7.91,4.66,11.58,1.08,4.43-.56,9.41,3.48,13.23,4.22,4,8.81-.2,13.13,1.05A51.89,51.89,0,0,0,187,166.7c.71-6,5.12-2.49,8.1-2.69-2.19-5.36-2.18-5.35,2.73-7.48.51-.22,1.2-.65,1.31-1.1.31-1.31-.82-1.82-1.71-2.38-3.52-2.22-7.51-1.35-11.3-1.56-6.54-.35-8.24-2.37-7.07-8.94,1.28-7.2,2.71-14.38,3.75-21.62s5.34-11.17,12.12-13.44c5.52-1.84,9.74-2.1,13,3.78,1.67,3,5.68,2.09,7.91,1,2.6-1.24.45-4.26-.14-6.29-1-3.31-3.69-5.62-6.6-8.54,5-.56,8.32.6,10.59,4.25.55.87.66,2.07,2.2,1.54,3.64-1.26,5.06-7,2.75-10.14-3.91-5.3-9.38-6.21-15.37-6.17-2.3,0-4.61,1.26-7.28-.06,4.07-12.08,10.89-20.63,24.61-22.15a79,79,0,0,0,27.79-7.88c6.3-3.24,9.55-8.45,9.77-15.54.45-14.49-7.94-22.83-23.24-21.55a72.58,72.58,0,0,1-24.86-2.28c-6.25-1.64-12.56-.61-18.45.9-13,3.35-19.85,13.05-21.11,25.75-1.56,15.75-15.07,27-30.31,28.62-16.52,1.79-32.77,4.76-47.83,12.35C77,95.86,56,93.36,35,83.57,28.23,80.41,23.38,74.68,15.52,69.92ZM439.64,51.45c2.45,5.8,4.46,11.47,7.21,16.75,2,3.82,2.17,5.21-2.78,6-6.3,1-11.93,4-14.82,10.23-2.71,5.83,2.28,6,5.64,7.57.83.39,1.83,1.85,2.1.47,1.58-8.11,6.94-8.65,13.38-7,2.92.74,7.83-2.49,8.43,1.61.56,3.88-4.68,4-7.87,5-8.81,2.76-14.29,12.4-11.23,20.3,1.85,4.79,5.9,2.57,9.35,2.19,3.71-.4,1.37-2.9,1.2-4-.9-5.77,1.66-7.74,7.07-9.22,9.8-2.69,18-1.55,24.69,6.49a10.62,10.62,0,0,0,3.73,2.52c6.37,2.92,12.21,6,9.15,14.83-.43,1.23.33,3,.79,4.4,1.21,3.73,2.56,7.41,4.1,11.82-11.93-1.34-22,1.17-30.62,8.6,16,7.87,16,7.79,21.25,7.19,11-1.26,20.91-4.06,23.13-17.66,4.4,2.91,8.32,5.46,12.19,8.09,1.4,1,3.13,2,2.47,4.05-.52,1.66-2.41,2-3.74,2a31.11,31.11,0,0,0-20.93,8.4c-2.86,2.58-3.24,2.17.4,4.14,1.35.73,1.34,1.9,1.4,3.26.18,4.57,5.63,5.47,7,5,5.7-1.95,11.66-2.92,17.28-5,10.68-4,15.06-12.58,12.28-23.71A27.1,27.1,0,0,0,531,130.13c-3.93-2.86-2.94-5.36-.79-8.64,2.87-4.37,4.4,0,5.93,1,25.44,16.52,52.8,24.89,83.34,19.9,9.38-1.53,18.5-4,26.63-9.21,1.25-.8,2.78-1.73,2.34-3.5-.49-2-2.4-1.58-3.79-1.46-6.41.57-12.8,1.3-19.19,1.95-25.42,2.59-46.57-.88-60.17-29.82-4.29-9.13-8.4-18.39-14.26-26.7-7.41-10.52-17.21-17.13-30-19.52-11-2-22-1.54-32.86-.5C470.53,55.28,461.37,45.17,455,33c-2.18-4.13.09-5,3.62-4.48a55.65,55.65,0,0,1,15.5,4.22c2.61,1.2,5.89,4.28,8.06,1.29,2.45-3.37-1.07-6.29-3.46-8.7a28.67,28.67,0,0,0-4.62-3.5c-14.37-9.49-30.36-9.06-46-5.76C415.76,18.69,407.89,28,403.21,39.58,398,52.41,405,61.17,418.67,59.18A49.87,49.87,0,0,0,439.64,51.45ZM590.78,297.4c1.48,2.06.47,3.94-.09,6.19-1.76,7.05,3.93,13.74,10,12.23,9.11-2.26,11.51-6,9.36-15.49-1.44-6.37-1.62-11.21,4.94-15.89,8.3-5.94,13.61-14.85,15.48-25.28.17-1,0-2.8-.37-2.89-1.14-.28-2.58-.42-3.42.94-.57.91-1.07,1.87-1.71,2.73-6.08,8.13-13,8.54-19.91,1-2.63-2.84-4.88-6-7.45-8.94-3.75-4.23-8.65-7.35-14.15-6.35-5.26,1-10.68,1.06-15.89,3.15-8.41,3.37-13.07-.26-13.63-9.46-.36-5.88.75-11.59,1.76-17.31,2.46-14-2.64-25.38-13.5-30.53-10.44-5-28.9-2.54-35.88,7.62-3.89,5.67-8,11.11-12.4,16.45-4.57,5.61-5,12.25-1.16,18.69,3.43,5.71,12.52,10.22,18.54,9a66.68,66.68,0,0,0,12.09-3.77c5.22-2.2,6.32-.39,6.09,4.67-.36,8.11-3.45,16.44-.07,24.31,3.77,8.77,3.17,17.09-.19,25.6a13.85,13.85,0,0,0-.81,3.12c-.73,5.14.94,8.22,6.68,8.66,4.32.33,8.15-1,12.05-2.75.73,11.43.73,11.46,9.89,11.72,3,.09,6.2.58,8.71-1.51,4.46-3.71,1.46-9.29,3.1-13.92,1.25,1.53,4.85-.55,4.33,3.38-.57,4.28,2.11,8.14,5.66,7.35,3.74-.83,10.64-.61,9.53-8.36C588.3,301.11,587.9,298.24,590.78,297.4ZM177.75,226c-4.29,27.34,1.64,44.43,17.94,53.14,14.24,7.61,33.72,5.51,45.43-4.89,12.14-10.79,16.46-32.77,9.3-49.76-4.66,6.53-10,6.62-15.65,1.77-2.59-2.2-3.3,2.34-5.57,2-.25-1.09-.49-1.92-.62-2.76-.61-4-1.44-8.08-1.72-12.15-.57-8.41,10.83,1.88,10.75-6.73,0-1.5,2-.07,2.85.75l4,3.68c-1.81-17.62-16.81-29.19-36.44-28.55-13.72.45-25.65,9.41-26,20.22,4.35-3.86,8.13-4.41,10.59,1.5,1.21,2.9,3.52-.9,5.06.93a21.83,21.83,0,0,1-7.41,8.37c-4.51,2.92-6.72,7.28-4.64,12.18,2.18,5.13,7.14,6.58,12.51,5.67,3.43-.58,6.8-1.57,10.2-2.37-1.91,3-4.61,4.81-6.67,7.17-3.15,3.61-5.71,2.91-9.07.21C188,232.79,183.11,229.73,177.75,226Zm-59.21-6.61c-5.93,4.2-11.11,7.91-16.35,11.54-1.25.87-2.18,2.5-4.36.94-3.41-2.44-4.82-10.13-2.43-16.65,2-5.35,4.72.1,7.12-.37a16,16,0,0,1,6.38.06c4.51,1,7.77-.5,9.48-4.54,1.84-4.36,1.16-8.52-2.9-11.52-3.51-2.6-6.08-5.93-8.71-9.38-4-5.3-9.63-7.85-16.46-6.48-7.12,1.43-10.38,6.44-11.41,13.13a107.76,107.76,0,0,0-1.15,12.19c-.26,6.63-1.66,13-3.14,19.5-2.86-.44-4-2.49-5.21-4.05-3.21-4.13-6.49-5.62-10.82-1.63-2.55,2.36-4.87,1.78-7.16-.59a31.84,31.84,0,0,0-4.09-3.09c-6.83,16.7-2.61,38.2,9.46,49.2,11.2,10.21,29.15,12.83,43,5.2C121.07,261.13,121.82,241.46,118.54,219.41Z"/><path class="cls-3" d="M344.48,257.54l-.36,22-.39,1.27c-2.85,8-13.64,12.49-21.3,8.9-11.45-5.37-12.49-7.84-8-20.16,1.53-4.21,3.53-8.24,5.09-12.44.48-1.3,1.4-3.25,0-4.2a6.73,6.73,0,0,0-4.83-1c-1.69.43-1,2.59-1.12,4-.33,2.78-.57,5.58-.62,8.38-.17,8.7-6.39,12.2-13.26,13.17a20.54,20.54,0,0,1-15.78-5c-3.3-2.86-2.12-7.28-.74-10.9,2.13-5.61,4.83-11,7.1-16.56,1.13-2.75,2.16-5.61,0-8.5-11.68-15.4-12.64-33-10-51.13,3.28-22.21,5.1-44.46,3.35-66.92-.36-4.63-1.13-5.87-6.08-3.85-7.54,3.07-15.55,5.05-23.84,2.38-11.44-3.69-15.54-16.7-7-24.88A274.33,274.33,0,0,0,266.35,71c7.49-8.8,17.77-10.82,28.88-7.74,10.61,2.94,15,11.38,16.51,21.08,2.7,17.2,4.38,34.55,6.73,51.8,1.33,9.8,3.07,19.53,6.23,29,3.53,10.55,9.62,16.7,23.15,12.13,6.7-2.26,13.06-5.44,20.14-6.73,14.43-2.62,26.34,1.58,35.91,12.54,4,4.54,7.66,9.33,12.59,12.94,8.38,6.14,16.62,6.5,25,.4,10.49-7.61,16-18.29,18-31a41.28,41.28,0,0,1,2-8.71c3.19,11.75,2.27,23.32-1.51,34.69-5.87,17.65-19.14,28.77-34.47,37.76-4,2.32-5.9,4.76-5.94,9.44-.09,9.25-.69,18.44.82,27.71,1.85,11.3.21,13.21-9.89,18.28-6.19,3.11-11.4,1.26-15.58-2.78-4-3.86-3.47-9.37-1.65-14.35,2.14-5.86,4.59-11.63,5.09-17.91.12-1.53,1.6-4.45-1.26-4.63-2.41-.15-3.92,1.73-3.89,4.76a95.84,95.84,0,0,1-1,11.57c-.56,4.91-3.27,8.62-7.74,10.16-5.87,2-12,2.61-17.59-1.35-1.8-1.28-1.78-3.27-1.94-5.23-.3-3.46.84-6.73,1.54-11.19-7.55,2.71-15-.44-22,2.7A1.33,1.33,0,0,0,344.48,257.54Z"/><path class="cls-3" d="M75.66,343.65c1.35-.47,2.2-2.1,3.87-1.78.8,1,0,1.71-.43,2.36-4.78,8.1-4.8,8.14,4.37,10.63,2.26.61,4.85.33,6.91,1.28,4.87,2.23,5.44,0,5.31-4.13-.09-2.74-.12-6.44,2.93-7.15,2.64-.62,4.9,2.09,6.8,4.21.79.89.1,3.71,3.13,1.94s.5-2.54,0-3.81a12.32,12.32,0,0,1-1-3.65c-.25-4.31-.7-10.39,3.32-11.49,4.47-1.22,9.38,2.24,12.09,6.9.68,1.16.21,3.38,2.56,2.78a4.78,4.78,0,0,0,2.67-1.7c1.33-2-1.09-2.35-1.91-3.31-3.26-3.8-4.3-13.11-2-17.06.71-1.19,1.6-1.08,2.63-1.26a13.7,13.7,0,0,1,15.46,8.65c.77,1.89.74,3.82,3.77,2.17,2.81-1.53,1.6-2.54.47-4.37-3.11-5-1.82-16.57,1.9-20.79a3.33,3.33,0,0,1,4-1.17c6.36,2.72,12.73,5.47,14.71,13.15.42,1.65-.13,4.57,3,3.71,3.53-1,.52-3.27.28-4.59-1.23-6.93,6.92-22.53,13.34-24.9a4.17,4.17,0,0,1,4.73,1.08c6.89,6.94,14,13.86,11.46,25-.43,1.92-.28,2.85,1.76,3.11s2-.9,2-2.34c.47-8.22,7.08-11.25,12.84-14.91,2.37-1.51,4.64-1,6,1.59,3.12,6.21,6.16,12.57,2.48,19.55-1.15,2.18-.39,2.79,1.26,3.82,2.47,1.55,2.76-.2,3.3-1.84a2.89,2.89,0,0,1,.65-1.11c3.41-3.44,7.33-6.44,12.36-5.4,2.8.58,3,11.42.55,15-1.06,1.56-3.59,2.42-.74,5,3.31,3,3.36-.48,4.88-1.61,2.49-1.85,5.12-4.53,8.56-2.76,2.35,1.21,2,7.21-.3,12,5.1,1.92,8.61,1.42,11.11-4.58,5.63-13.56,25.44-18.18,36.52-7.6,5,4.81,10.27,9,16.86,11.6,4.11,1.61,6,5.22,6.17,9.79s-2.24,7.66-6.07,9.82a22.64,22.64,0,0,1-10.4,3.21A96.63,96.63,0,0,0,263.3,381.9a28.62,28.62,0,0,1-2.93,1.33c-12.81,5.6-12.76,5.59-9.33,19.34a6.21,6.21,0,0,0,3,3.9c4.25,2.88,2.2,4.92-1.14,6.37-3.8,1.65-7.92,2.06-12,2.25-3.32.16-6-.73-5.62-5.07a6.68,6.68,0,0,0-.92-3.71c-1-1.75-.88-4.44-3.55-4.94a2.19,2.19,0,0,0-2.44,1.68c-.63,2.47-1.31,5.07.74,7.31,1.49,1.62,4.88,2.25,3.64,5.32s-4.42,3.09-7.13,3.62a36.35,36.35,0,0,1-6.42.73c-4.89.06-9.22.3-9-7.25.12-4.89-2.78-9.82-4.09-14.8-.71-2.71-2.65-1.62-4.12-1.63-5.39,0-10.79-.07-16.17.22-2,.11-5.07-1.87-5.88,1.78-.75,3.42-3.32,7.3-.1,10.36,4.92,4.68,2.24,5.9-2.35,7.69-4.9,1.91-9.09,1.91-13.86-.61-3-1.59-4.61-2.79-3.47-6.24,1-3.12-1.14-5.82-1.26-9.29-4,2.86-6.57,5.53-4.07,10.69,1.8,3.71-1.16,5.65-4.1,6.7a23.3,23.3,0,0,1-16.47,0c-5.65-2.15-8.2-7.13-6.22-13,1.7-5.06,4.18-9.87,6.4-14.75,1.06-2.34.73-3.05-1.92-4.49-10.83-5.89-22.68-7.54-34.44-10.1C78.54,371,62,361.33,49.56,345.38c-2.51-3.22-4.73-6.66-5.66-10.77a3.62,3.62,0,0,1,1.22-4,2.67,2.67,0,0,1,4,.11c6.37,7.28,8.73,2,11.27-3.36.52-1.09,1.06-2.45,2.78-2.36,1.56,4.88-3.9,8.62-1.88,13.69,3.2-1.27,4.54-5.76,9.33-6.42-.92,4-3.29,6.47-5,9.23-1,1.59-1.21,2.87.53,3.7s1.92-1,2.43-2c1.95-3.72,3.36-7.78,8.21-12L74,342.48C73.54,344.32,74,344.79,75.66,343.65Z"/><path class="cls-3" d="M617,392.44a10,10,0,0,1-.78,1.69c-4.38,5.23-24.18,9.9-30.43,7.9-15.39-4.92-30.07-11.13-43.12-20.87-1.52-1.13-3.56-3.06-5.62-.51-1.67,2.06-4.47,3.38-3.59,7,1.64,6.72,3.68,13.18,7.37,19.15,6.15,10,2.91,16.54-8.58,18a54.44,54.44,0,0,1-7.09.58c-8.91-.06-9.77-1.11-8.72-9.72.15-1.23.29-3-.4-3.71-4.7-4.47-6.26-10.93-11.07-17.44a22.15,22.15,0,0,0,2.82,12.15c2.28,4.42,4.6,9.07.7,13.66-2.71,3.19-15.67,4.33-19.17,2.11-2.3-1.47-2.83-3.6-.92-5.36,7.59-7-.65-12.22-2.37-17.73-1.26-4-6.92-1.26-10.56-1.87-2.54-.42-2.8,1.36-2.63,3.25.62,6.78-4,12.73-3.06,19.59.27,2-1.48,2.85-3.28,3.36a27.36,27.36,0,0,1-18.39-1.11c-3.35-1.38-3.82-3.92-2.16-6.84,5.23-9.24,5.26-9.22,2.63-18.65-2.75,2.71-2.9,6.1-3.31,9.33-1.81,14.24-14.15,15.37-23.77,9.24-4.09-2.61-3-7.28.5-9.91,6.81-5.1,7-11.84,6.09-19.17-.47-4-1.86-5.36-5.84-3.18-10.55,5.78-22.06,7-33.8,6.16-11.47-.83-17.84-8-16.81-19.26A18.27,18.27,0,0,0,370,361c-2.55-5.59.33-5.38,4.07-4.75,3,.5,5.52,2.57,8.17-1.71s.93-6.43-1.49-9.35a49.75,49.75,0,0,1-5-7.53c-2.09-3.73-2-7.14,2.65-8.81,2.84-1,3-2.49,2.46-5.3-1.75-9.76-1.14-10.75,8.45-12.5,3.23-.59,4-2,4.83-4.73,2.29-7.6,4.56-8.92,11.63-6,4.12,1.73,7,1,10.61-1.24,7.79-4.84,10.1-4,13.06,4.8,1.16,3.46,2.41,3.53,5.42,2.79,10.36-2.55,12.83-.74,12.68,9.82-.08,5.44,1,7.23,6.47,4.59,1.9-.91,5.3-.92,6.74.92,3.09,3.94,6.26,2.14,9.62,1.12,19.66-6,39.31-7.62,58.7.85,14.31,6.26,25,16.55,32.44,30.29,4.08,7.57,7.8,15.34,12.72,22.44,7.15,10.32,16.69,15.83,29.54,15.18C608,391.7,612.32,392.23,617,392.44Z"/><path class="cls-4" d="M15.52,69.92C23.38,74.68,28.23,80.41,35,83.57c21,9.79,42,12.29,63.36,1.53,15.07-7.58,31.31-10.56,47.83-12.35,15.24-1.65,28.74-12.87,30.31-28.62,1.26-12.7,8.12-22.4,21.11-25.75,5.89-1.52,12.2-2.54,18.45-.9a72.58,72.58,0,0,0,24.86,2.28c15.3-1.28,23.7,7.06,23.24,21.55-.22,7.08-3.47,12.29-9.77,15.54a79,79,0,0,1-27.79,7.88C212.91,66.25,206.08,74.81,202,86.89c2.67,1.32,5,.07,7.28.06,6,0,11.46.88,15.37,6.17,2.31,3.13.89,8.88-2.75,10.14-1.54.53-1.65-.66-2.2-1.54-2.27-3.64-5.61-4.81-10.59-4.25,2.91,2.92,5.64,5.24,6.6,8.54.59,2,2.73,5,.14,6.29-2.23,1.07-6.25,1.93-7.91-1-3.31-5.88-7.53-5.62-13-3.78-6.78,2.26-11.07,6.11-12.12,13.44s-2.48,14.42-3.75,21.62c-1.16,6.57.53,8.58,7.07,8.94,3.79.21,7.78-.66,11.3,1.56.89.56,2,1.07,1.71,2.38-.11.45-.79.87-1.31,1.1-4.91,2.13-4.92,2.12-2.73,7.48-3,.2-7.38-3.26-8.1,2.69a51.89,51.89,0,0,1-7.39-1.08c-4.32-1.25-8.91,2.94-13.13-1.05-4-3.82-2.4-8.81-3.48-13.23-.89-3.66-2.8-7.08-4.66-11.58-2.38,7.47-4.48,13.95-6.5,20.44-.83,2.68.83,4.17,3,4.91,4.41,1.52,8,4.84,12.93,5.33,2.09.21,4.66,1.57,4.75,3.76.12,2.92-2.73,1.54-4.39,1.89a2.43,2.43,0,0,0-2.09,3.22c2,6.05-.57,5-4.09,2.77a2.2,2.2,0,0,0-1.58-.09c-2.06.59-.85,5.25-3,4-7.16-4.31-15.95-1.31-22.89-5.77a5,5,0,0,1-2.43-5c1.63-13.43-3.37-25.41-8.3-37.35-1.71-4.15-1.46-8.68-5.58-12.46-7-6.39-14.5-7.33-23.34-7.89-25.86-1.66-49.11-10.45-68-28.8C21.87,84,17.51,78.74,15.52,69.92Z"/><path class="cls-4" d="M439.64,51.45a49.87,49.87,0,0,1-21,7.73c-13.68,2-20.64-6.77-15.46-19.61,4.68-11.6,12.55-20.88,24.86-23.48,15.65-3.29,31.64-3.73,46,5.76a28.67,28.67,0,0,1,4.62,3.5c2.39,2.41,5.91,5.33,3.46,8.7-2.17,3-5.45-.09-8.06-1.29a55.65,55.65,0,0,0-15.5-4.22c-3.53-.52-5.8.35-3.62,4.48,6.39,12.13,15.55,22.25,33.21,20.56,10.91-1,21.9-1.55,32.86.5,12.79,2.39,22.59,9,30,19.52,5.86,8.32,10,17.57,14.26,26.7,13.6,28.94,34.76,32.4,60.17,29.82,6.4-.65,12.79-1.38,19.19-1.95,1.39-.12,3.3-.53,3.79,1.46.44,1.77-1.09,2.7-2.34,3.5-8.12,5.23-17.25,7.67-26.63,9.21-30.54,5-57.89-3.37-83.34-19.9-1.53-1-3.06-5.32-5.93-1-2.15,3.27-3.13,5.78.79,8.64a27.1,27.1,0,0,1,10.8,15.62c2.77,11.13-1.61,19.68-12.28,23.71-5.62,2.12-11.59,3.1-17.28,5-1.34.46-6.79-.45-7-5-.05-1.36,0-2.52-1.4-3.26-3.64-2-3.26-1.56-.4-4.14a31.11,31.11,0,0,1,20.93-8.4c1.33,0,3.22-.35,3.74-2,.66-2.08-1.07-3.1-2.47-4.05-3.86-2.63-7.78-5.17-12.19-8.09-2.21,13.6-12.08,16.4-23.13,17.66-5.29.6-5.28.68-21.25-7.19,8.65-7.43,18.69-9.94,30.62-8.6-1.54-4.41-2.89-8.09-4.1-11.82-.46-1.42-1.21-3.16-.79-4.4,3.06-8.83-2.78-11.91-9.15-14.83a10.62,10.62,0,0,1-3.73-2.52c-6.74-8-14.88-9.18-24.69-6.49-5.41,1.48-8,3.45-7.07,9.22.17,1.08,2.51,3.57-1.2,4-3.46.38-7.5,2.6-9.35-2.19-3.06-7.9,2.43-17.54,11.23-20.3,3.19-1,8.43-1.09,7.87-5-.59-4.11-5.51-.87-8.43-1.61-6.44-1.64-11.8-1.1-13.38,7-.27,1.37-1.27-.08-2.1-.47-3.36-1.58-8.34-1.74-5.64-7.57,2.89-6.24,8.52-9.23,14.82-10.23,4.95-.79,4.77-2.18,2.78-6C444.1,62.92,442.09,57.25,439.64,51.45Z"/><path class="cls-4" d="M590.78,297.4c-2.88.85-2.48,3.71-2.38,4.38,1.11,7.76-5.78,7.53-9.53,8.36-3.55.79-6.23-3.07-5.66-7.35.52-3.94-3.08-1.86-4.33-3.38-1.64,4.63,1.37,10.21-3.1,13.92-2.51,2.09-5.72,1.6-8.71,1.51-9.16-.26-9.16-.29-9.89-11.72-3.9,1.78-7.73,3.08-12.05,2.75-5.75-.44-7.41-3.52-6.68-8.66a13.85,13.85,0,0,1,.81-3.12c3.36-8.51,4-16.83.19-25.6-3.39-7.87-.3-16.2.07-24.31.23-5.06-.88-6.87-6.09-4.67a66.68,66.68,0,0,1-12.09,3.77c-6,1.27-15.11-3.24-18.54-9-3.86-6.44-3.41-13.08,1.16-18.69,4.35-5.34,8.51-10.78,12.4-16.45,7-10.16,25.44-12.58,35.88-7.62,10.86,5.15,16,16.55,13.5,30.53-1,5.72-2.12,11.44-1.76,17.31.56,9.2,5.22,12.83,13.63,9.46,5.21-2.09,10.63-2.19,15.89-3.15,5.5-1,10.4,2.12,14.15,6.35,2.57,2.9,4.82,6.09,7.45,8.94,6.95,7.5,13.83,7.1,19.91-1,.64-.86,1.14-1.82,1.71-2.73.84-1.36,2.29-1.22,3.42-.94.36.09.54,1.93.37,2.89-1.87,10.43-7.18,19.34-15.48,25.28-6.56,4.69-6.38,9.52-4.94,15.89,2.15,9.48-.25,13.23-9.36,15.49-6.12,1.52-11.8-5.17-10-12.23C591.24,301.34,592.25,299.45,590.78,297.4Z"/><path class="cls-4" d="M177.75,226c5.35,3.72,10.27,6.78,14.76,10.38,3.36,2.69,5.91,3.4,9.07-.21,2.06-2.36,4.76-4.15,6.67-7.17-3.4.8-6.76,1.79-10.2,2.37-5.37.91-10.33-.54-12.51-5.67-2.08-4.9.12-9.27,4.64-12.18a21.83,21.83,0,0,0,7.41-8.37c-1.54-1.83-3.85,2-5.06-.93-2.46-5.91-6.24-5.35-10.59-1.5.39-10.82,12.31-19.78,26-20.22,19.64-.64,34.64,10.93,36.44,28.55l-4-3.68c-.88-.81-2.86-2.25-2.85-.75.08,8.6-11.32-1.68-10.75,6.73.27,4.07,1.11,8.1,1.72,12.15.13.84.37,1.67.62,2.76,2.27.32,3-4.22,5.57-2,5.7,4.85,11,4.76,15.65-1.77,7.16,17,2.84,39-9.3,49.76-11.7,10.4-31.19,12.5-45.43,4.89C179.39,270.44,173.46,253.35,177.75,226Z"/><path class="cls-3" d="M118.54,219.41c3.28,22.05,2.53,41.73-18.75,53.46-13.84,7.63-31.79,5-43-5.2-12.08-11-16.29-32.5-9.46-49.2a31.84,31.84,0,0,1,4.09,3.09c2.29,2.38,4.61,2.95,7.16.59,4.33-4,7.61-2.5,10.82,1.63,1.21,1.56,2.35,3.62,5.21,4.05,1.49-6.48,2.88-12.87,3.14-19.5a107.76,107.76,0,0,1,1.15-12.19c1-6.69,4.29-11.7,11.41-13.13,6.83-1.37,12.42,1.19,16.46,6.48,2.63,3.45,5.2,6.78,8.71,9.38,4.06,3,4.74,7.16,2.9,11.52-1.71,4-5,5.57-9.48,4.54a16,16,0,0,0-6.38-.06c-2.4.46-5.16-5-7.12.37-2.39,6.52-1,14.21,2.43,16.65,2.18,1.56,3.11-.07,4.36-.94C107.43,227.32,112.61,223.6,118.54,219.41Z"/><path class="cls-5" d="M344.48,257.54a1.33,1.33,0,0,1,0-1.16,4.47,4.47,0,0,1,.33.83C344.87,257.29,344.61,257.43,344.48,257.54Z"/><path class="cls-5" d="M343.73,280.8l.39-1.27C344.64,280.15,344.26,280.5,343.73,280.8Z"/><path class="cls-2" d="M75.66,343.65c-1.64,1.14-2.12.66-1.63-1.17Z"/></g></g></g></svg>