<svg xmlns="http://www.w3.org/2000/svg" viewBox="0 0 221.38 229.03"><defs><style>.cls-1{fill:#231f20;}</style></defs><title>dynopop</title><g id="Layer_2" data-name="Layer 2"><g id="Layer_1-2" data-name="Layer 1"><path class="cls-1" d="M102.38,195.62l-.36,22-.39,1.27c-2.85,8-13.64,12.49-21.3,8.9-11.45-5.37-12.49-7.84-8-20.16,1.53-4.21,3.53-8.24,5.09-12.44.48-1.3,1.4-3.25,0-4.2a6.73,6.73,0,0,0-4.83-1c-1.69.43-1,2.59-1.12,4-.33,2.78-.57,5.58-.62,8.38-.17,8.7-6.39,12.2-13.26,13.17a20.54,20.54,0,0,1-15.78-5c-3.3-2.86-2.12-7.28-.74-10.9,2.13-5.61,4.83-11,7.1-16.56,1.13-2.75,2.16-5.61,0-8.5-11.68-15.4-12.64-33-10-51.13,3.28-22.21,5.1-44.46,3.35-66.92-.36-4.63-1.13-5.87-6.08-3.85-7.54,3.07-15.55,5.05-23.84,2.38C.11,51.41-4,38.41,4.59,30.22A274.33,274.33,0,0,0,24.25,9.09C31.74.29,42-1.73,53.12,1.35c10.61,2.94,15,11.38,16.51,21.08C72.33,39.62,74,57,76.36,74.23c1.33,9.8,3.07,19.53,6.23,29,3.53,10.55,9.62,16.7,23.15,12.13,6.7-2.26,13.06-5.44,20.14-6.73,14.43-2.62,26.34,1.58,35.91,12.54,4,4.54,7.66,9.33,12.59,12.94,8.38,6.14,16.62,6.5,25,.4,10.49-7.61,16-18.29,18-31a41.28,41.28,0,0,1,2-8.71c3.19,11.75,2.27,23.32-1.51,34.69-5.87,17.65-19.14,28.77-34.47,37.76-4,2.32-5.9,4.76-5.94,9.44-.09,9.25-.69,18.44.82,27.71,1.85,11.3.21,13.21-9.89,18.28-6.19,3.11-11.4,1.26-15.58-2.78-4-3.86-3.47-9.37-1.65-14.35,2.14-5.86,4.59-11.63,5.09-17.91.12-1.53,1.6-4.45-1.26-4.63-2.41-.15-3.92,1.73-3.89,4.76a95.84,95.84,0,0,1-1,11.57c-.56,4.91-3.27,8.62-7.74,10.16-5.87,2-12,2.61-17.59-1.35-1.8-1.28-1.78-3.27-1.94-5.23-.3-3.46.84-6.73,1.54-11.19-7.55,2.71-15-.44-22,2.7A1.33,1.33,0,0,0,102.38,195.62Z"/></g></g></svg>